<svg width="165" height="167" viewBox="0 0 165 167" fill="none" xmlns="http://www.w3.org/2000/svg">
<path d="M69.0225 26.2888C69.0225 26.2888 76.2382 44.4765 89.653 35.4059C103.068 26.3353 95.535 14.6169 89.3824 7.8308C83.2298 1.04465 76.7596 0.727008 68.2767 8.4185C59.7939 16.11 59.4764 22.5787 59.1598 29.0489C58.8431 35.5192 58.2094 48.4586 66.217 50.4715C74.2247 52.4844 73.162 41.0841 66.8508 37.5321C60.5396 33.9801 50.8349 33.5048 50.8349 33.5048C50.8349 33.5048 58.0967 17.6479 49.9304 18.8689C41.764 20.0898 50.5181 39.9745 50.5181 39.9745C50.5181 39.9745 43.4145 52.5967 31.6967 60.1297C19.9788 67.6626 7.19847 73.0674 3.19403 67.4236C-0.810409 61.7797 12.6048 52.7099 25.8608 46.8735C39.1168 41.0371 63.774 34.1384 53.2778 49.8377C42.7816 65.5369 38.0541 29.6361 38.0541 29.6361" stroke="#AD917B" stroke-width="4.28571" stroke-linecap="round"/>
<path d="M159 8L39 8" stroke="#AD917B" stroke-width="4" stroke-linecap="round"/>
<path d="M13 154L13 34" stroke="#AD917B" stroke-width="4" stroke-linecap="round"/>
<mask id="path-4-inside-1_38_245" fill="white">
<path d="M11 6H41V11C41 24.8071 29.8071 36 16 36H11V6Z"/>
</mask>
<path d="M11 6H41H11ZM45 11C45 27.0163 32.0163 40 16 40H11V32H16C27.598 32 37 22.598 37 11H45ZM11 36V6V36ZM45 6V11C45 27.0163 32.0163 40 16 40V32C27.598 32 37 22.598 37 11V6H45Z" fill="#AD917B" mask="url(#path-4-inside-1_38_245)"/>
<circle cx="23.5" cy="18.5" r="2.5" fill="#AD917B"/>
</svg>
