<svg width="77" height="74" viewBox="0 0 77 74" fill="none" xmlns="http://www.w3.org/2000/svg">
<mask id="path-1-inside-1_6_505" fill="white">
<path d="M77 4H23C14.1634 4 7 11.1634 7 20V74H77V4Z"/>
</mask>
<path d="M77 2H23C13.0589 2 5 10.0589 5 20H9C9 12.268 15.268 6 23 6H77V2ZM7 74H77H7ZM77 74V4V74ZM23 2C13.0589 2 5 10.0589 5 20V74H9V20C9 12.268 15.268 6 23 6V2Z" fill="#AD917B" mask="url(#path-1-inside-1_6_505)"/>
<path d="M35.5703 11.7457C35.5703 11.7457 37.4612 20.679 44.3445 17.5599C51.2278 14.4409 48.683 8.45876 46.3857 4.85386C44.0884 1.24895 41.137 0.594684 36.6307 3.46663C32.1244 6.33858 31.4704 9.28931 30.8166 12.2408C30.1627 15.1924 28.855 21.0948 32.3805 22.6497C35.906 24.2046 36.3125 18.8768 33.6883 16.7472C31.064 14.6176 26.6371 13.6368 26.6371 13.6368C26.6371 13.6368 31.2229 6.91277 27.3704 6.83306C23.518 6.75335 25.9832 16.588 25.9832 16.588C25.9832 16.588 21.7242 21.8365 15.7423 24.3814C9.76031 26.9264 3.45674 28.4089 2.0579 25.4982C0.659068 22.5875 7.54254 19.4689 14.0988 17.8251C20.6551 16.1814 32.5394 14.9444 26.4781 21.3419C20.4168 27.7394 21.0616 10.8534 21.0616 10.8534" stroke="#AD917B" stroke-width="2"/>
</svg>
