<svg width="164" height="158" viewBox="0 0 164 158" fill="none" xmlns="http://www.w3.org/2000/svg">
<mask id="path-1-inside-1_4_135" fill="white">
<path d="M0 150H115.714C134.65 150 150 134.65 150 115.714V0H0V150Z"/>
</mask>
<path d="M0 154.286H115.714C137.017 154.286 154.286 137.017 154.286 115.714H145.714C145.714 132.283 132.283 145.714 115.714 145.714H0V154.286ZM150 0H0H150ZM0 0V150V0ZM115.714 154.286C137.017 154.286 154.286 137.017 154.286 115.714V0H145.714V115.714C145.714 132.283 132.283 145.714 115.714 145.714V154.286Z" fill="#AD917B" mask="url(#path-1-inside-1_4_135)"/>
<path d="M88.7779 133.402C88.7779 133.402 84.726 114.259 69.9761 120.943C55.2261 127.627 60.6793 140.446 65.6021 148.17C70.5249 155.895 76.8493 157.297 86.5056 151.143C96.1619 144.989 97.5635 138.666 98.9645 132.341C100.366 126.016 103.168 113.368 95.6132 110.036C88.0585 106.704 87.1875 118.121 92.8109 122.685C98.4342 127.248 107.921 129.35 107.921 129.35C107.921 129.35 98.0937 143.758 106.349 143.929C114.604 144.1 109.322 123.026 109.322 123.026C109.322 123.026 118.448 111.779 131.267 106.325C144.085 100.872 157.593 97.6951 160.59 103.932C163.588 110.17 148.837 116.852 134.788 120.375C120.739 123.897 95.2726 126.548 108.261 112.839C121.25 99.1299 119.868 135.314 119.868 135.314" stroke="#AD917B" stroke-width="4.28571"/>
</svg>
