<svg width="165" height="167" viewBox="0 0 165 167" fill="none" xmlns="http://www.w3.org/2000/svg">
<path d="M95.9775 140.711C95.9775 140.711 88.7618 122.523 75.347 131.594C61.9323 140.665 69.465 152.383 75.6176 159.169C81.7702 165.955 88.2404 166.273 96.7233 158.582C105.206 150.89 105.524 144.421 105.84 137.951C106.157 131.481 106.791 118.541 98.783 116.528C90.7753 114.516 91.838 125.916 98.1492 129.468C104.46 133.02 114.165 133.495 114.165 133.495C114.165 133.495 106.903 149.352 115.07 148.131C123.236 146.91 114.482 127.026 114.482 127.026C114.482 127.026 121.586 114.403 133.303 106.87C145.021 99.3374 157.802 93.9326 161.806 99.5764C165.81 105.22 152.395 114.29 139.139 120.126C125.883 125.963 101.226 132.862 111.722 117.162C122.218 101.463 126.946 137.364 126.946 137.364" stroke="#AD917B" stroke-width="4.28571" stroke-linecap="round"/>
<path d="M6 159L126 159" stroke="#AD917B" stroke-width="4" stroke-linecap="round"/>
<path d="M152 13L152 133" stroke="#AD917B" stroke-width="4" stroke-linecap="round"/>
<mask id="path-4-inside-1_38_245" fill="white">
<path d="M154 161H124V156C124 142.193 135.193 131 149 131H154V161Z"/>
</mask>
<path d="M154 161H124H154ZM120 156C120 139.984 132.984 127 149 127H154V135H149C137.402 135 128 144.402 128 156H120ZM154 131V161V131ZM120 161V156C120 139.984 132.984 127 149 127V135C137.402 135 128 144.402 128 156V161H120Z" fill="#AD917B" mask="url(#path-4-inside-1_38_245)"/>
<circle cx="141.5" cy="148.5" r="2.5" transform="rotate(-180 141.5 148.5)" fill="#AD917B"/>
</svg>
