<svg width="256" height="164" viewBox="0 0 256 164" fill="none" xmlns="http://www.w3.org/2000/svg">
<g clip-path="url(#clip0_11_246)">
<rect x="168.573" y="11.6341" width="87.6678" height="116.89" rx="5.84452" transform="rotate(10 168.573 11.6341)" fill="#FFF0CC"/>
<g clip-path="url(#clip1_11_246)">
<path d="M236.058 60.7402C235.379 59.6566 227.589 50.6627 226.048 49.8983C225.377 49.5683 224.689 49.3144 223.964 49.131C220.609 48.2829 216.672 48.6871 213.861 50.8167C213.616 51.0024 213.476 51.1084 213.476 51.1084C213.476 51.1084 213.59 50.974 213.791 50.7391C214.736 49.6391 215.985 48.7594 217.273 48.1056C217.866 47.8044 218.483 47.5499 219.116 47.346C219.29 47.2901 220.908 46.7524 220.989 46.8746C220.989 46.8743 220.332 45.8818 220.332 45.8818C219.264 44.3564 218.059 42.9912 216.148 42.6543C213.78 42.2367 211.497 43.3481 210.308 45.2779C209.701 44.6355 208.649 44.1037 207.397 43.8829C206.145 43.6621 204.975 43.8021 204.184 44.1982C203.727 41.9779 201.962 40.153 199.594 39.7354C197.684 39.3985 196.084 40.2689 194.558 41.3371C194.558 41.3371 193.602 42.0452 193.602 42.0454C193.719 41.9582 195.056 43.0169 195.2 43.1289C195.726 43.5371 196.218 43.9873 196.673 44.4732C197.659 45.5278 198.532 46.7818 199.044 48.1388C199.152 48.4282 199.214 48.5934 199.214 48.5934C199.214 48.5934 199.118 48.4459 198.951 48.1877C197.038 45.2249 193.477 43.4987 190.035 43.1483C189.29 43.0726 188.557 43.0757 187.813 43.1563C186.104 43.3476 175.708 49.1349 174.699 49.9209C171.783 52.1926 169.665 55.5106 168.973 59.438C167.489 67.8539 173.108 75.8796 181.524 77.3635C189.223 78.721 196.594 74.1335 198.931 66.8992C199.976 67.9849 201.363 68.7614 202.961 69.0432C204.559 69.325 206.127 69.0694 207.481 68.4068C207.202 76.0039 212.56 82.8359 220.259 84.1934C228.675 85.6774 236.7 80.0577 238.184 71.6418C238.877 67.7144 238.022 63.8725 236.058 60.7402ZM182.186 71.6364C177.11 70.7415 173.721 65.9015 174.616 60.8262C175.511 55.751 180.351 52.362 185.427 53.257C190.502 54.1519 193.891 58.9918 192.996 64.067C192.101 69.1423 187.261 72.5313 182.186 71.6364ZM203.663 65.0579C202.325 64.8218 201.431 63.5452 201.667 62.2066C201.903 60.8679 203.179 59.9741 204.518 60.2102C205.857 60.4462 206.751 61.7228 206.515 63.0614C206.279 64.4001 205.002 65.2939 203.663 65.0579ZM221.596 78.5854C216.52 77.6905 213.132 72.8506 214.026 67.7753C214.921 62.7 219.761 59.3111 224.837 60.206C229.912 61.1009 233.301 65.9408 232.406 71.0161C231.511 76.0914 226.671 79.4804 221.596 78.5854Z" fill="#822222"/>
</g>
</g>
<rect x="168.867" y="12.0537" width="86.9433" height="116.166" rx="5.48225" transform="rotate(10 168.867 12.0537)" stroke="#822222" stroke-width="0.724527"/>
<rect x="0.902882" y="27.1513" width="86.9433" height="116.166" rx="5.48225" transform="rotate(-10 0.902882 27.1513)" fill="#FFF0CC"/>
<rect x="0.902882" y="27.1513" width="86.9433" height="116.166" rx="5.48225" transform="rotate(-10 0.902882 27.1513)" stroke="#822222" stroke-width="0.724527"/>
<path d="M45.7561 48.8578C54.1024 47.3862 62.044 52.8597 63.494 61.0832M68.4547 77.5726L83.8575 88.1988M72.5615 59.4844C74.8815 72.6422 65.9367 85.2175 52.5825 87.5722C39.2283 89.9269 26.5219 81.1693 24.2018 68.0115C21.8818 54.8538 30.8266 42.2784 44.1808 39.9237C57.535 37.569 70.2414 46.3266 72.5615 59.4844Z" stroke="#822222" stroke-width="5.79622" stroke-linecap="round" stroke-linejoin="round"/>
<g filter="url(#filter0_d_11_246)">
<rect x="83.8038" y="2.21523" width="87.6678" height="116.89" rx="5.84452" fill="#822222"/>
<path d="M120.01 55.4101C119.859 55.601 119.709 55.7918 119.554 55.9885C117.819 58.3625 116.919 60.7925 116.07 63.5762C115.599 65.0402 115.599 65.0402 114.983 66.432C114.358 67.9387 114.007 69.4175 113.694 71.0088C112.859 75.0095 111.743 78.9211 110.62 82.8489C110.103 84.6623 109.626 86.48 109.182 88.3128C107.594 88.3128 106.006 88.3128 104.37 88.3128C103.953 84.7559 103.841 81.2058 103.744 77.6295C103.726 77.0292 103.709 76.4289 103.691 75.8286C103.649 74.3725 103.608 72.9164 103.568 71.4602C102.915 72.7685 103.029 74.2217 102.967 75.6624C102.942 76.1669 102.942 76.1669 102.917 76.6817C102.848 78.1242 102.782 79.5669 102.716 81.0097C102.668 82.0612 102.617 83.1126 102.566 84.164C102.552 84.4929 102.537 84.8218 102.523 85.1607C102.411 87.4651 102.411 87.4651 101.964 87.9116C100.094 88.0818 99.0832 87.7885 97.5532 86.7078C97.4209 87.2375 97.2886 87.7671 97.1522 88.3128C96.3582 88.3128 95.5643 88.3128 94.7462 88.3128C94.7043 86.0059 94.8652 83.804 95.1472 81.5166C95.5669 77.8841 95.6323 74.3101 95.5482 70.6577C95.472 70.9053 95.3959 71.1529 95.3174 71.408C93.4417 77.4343 91.2023 83.0938 88.3301 88.7141C87.8008 88.7141 87.2714 88.7141 86.7261 88.7141C87.9562 82.852 89.864 77.1755 91.7888 71.5104C91.9379 71.0646 92.0871 70.6187 92.2408 70.1594C94.03 64.9681 94.03 64.9681 96.4489 63.3866C99.0879 62.2035 101.991 61.6587 104.796 61.0026C105.662 60.7986 106.527 60.5934 107.391 60.3852C108.174 60.1968 108.958 60.0125 109.742 59.8285C111.898 59.2232 113.859 58.517 115.523 56.965C117.068 55.5433 117.879 55.3638 120.01 55.4101Z" fill="#FFF0CC"/>
<path d="M138.857 55.8114C139.926 56.2823 140.715 56.8129 141.644 57.5418C143.526 58.8966 145.607 59.5849 147.779 60.3506C148.639 60.664 149.498 60.9785 150.356 61.2941C150.782 61.4505 151.209 61.6068 151.648 61.7679C163.785 66.2895 163.785 66.2895 166.526 71.4602C167.177 72.9125 167.487 74.2105 167.67 75.7894C167.722 76.2337 167.773 76.678 167.826 77.1358C167.902 77.8271 167.902 77.8271 167.98 78.5323C168.061 79.2096 168.061 79.2096 168.143 79.9007C168.462 82.7177 168.602 85.4785 168.531 88.3129C167.936 88.1142 167.936 88.1142 167.328 87.9116C166.843 86.7942 166.843 86.7942 166.376 85.3066C166.249 84.909 166.249 84.909 166.12 84.5034C165.85 83.6513 165.587 82.7972 165.323 81.943C165.146 81.3828 164.969 80.8227 164.791 80.2627C163.919 77.5005 163.093 74.7447 162.465 71.9146C162.029 70.8474 161.471 70.4626 160.511 69.8552C160.627 70.2773 160.743 70.6994 160.862 71.1342C161.329 73.0041 161.607 74.8865 161.885 76.7925C162.052 77.8741 162.233 78.946 162.433 80.0213C162.516 80.4683 162.516 80.4683 162.6 80.9243C162.708 81.5033 162.818 82.0819 162.931 82.66C163.286 84.5734 163.366 86.3664 163.318 88.3129C162.415 87.409 162.292 86.9338 161.968 85.7188C161.869 85.3648 161.771 85.0107 161.669 84.6459C161.466 83.8995 161.265 83.1524 161.067 82.4046C160.968 82.05 160.868 81.6954 160.765 81.3301C160.634 80.8429 160.634 80.8429 160.5 80.3459C159.865 78.9442 158.849 78.4322 157.479 77.8301C155.972 76.6706 155.675 75.2884 155.298 73.4665C155.1 71.8633 154.976 70.2647 154.897 68.6515C152.912 68.8501 152.912 68.8501 150.887 69.0527C151.408 69.2431 151.929 69.4334 152.466 69.6295C154.045 70.2063 154.045 70.2063 154.496 70.6577C154.587 71.1919 154.654 71.7301 154.711 72.269C154.746 72.6032 154.781 72.9374 154.817 73.2817C155.778 83.2112 155.778 83.2112 154.095 87.9116C152.639 87.9116 151.184 87.9116 149.684 87.9116C148.903 85.4525 148.135 83.0034 147.554 80.4884C145.703 72.9623 142.924 65.3135 139.339 58.443C138.857 57.4164 138.857 57.4164 138.857 55.8114Z" fill="#FFF0CC"/>
<path d="M128.822 22.7682C129.445 22.7615 130.067 22.7506 130.69 22.7352C131.59 22.7132 132.489 22.7045 133.389 22.6986C133.665 22.6895 133.942 22.6804 134.227 22.671C135.756 22.6777 136.397 22.865 137.602 23.8348C138.609 25.1085 139.173 26.4105 139.709 27.9243C140.76 31.1814 140.76 31.1814 143.049 33.5497C143.419 33.7209 143.789 33.8921 144.17 34.0685C146.353 35.1997 148.016 36.4142 149.283 38.5575C149.655 40.4876 149.296 41.7886 148.232 43.4462C145.442 47.1243 140.957 50.7948 136.28 51.5559C135.401 51.6584 134.527 51.7407 133.644 51.7988C133.644 51.534 133.644 51.2692 133.644 50.9963C133.992 50.8944 134.341 50.7925 134.7 50.6875C135.162 50.5494 135.624 50.4113 136.1 50.2691C136.556 50.1341 137.012 49.9991 137.482 49.86C139.965 49.1293 139.965 49.1293 141.664 47.3851C141.284 47.2775 140.903 47.1699 140.511 47.059C139.258 46.5825 139.258 46.5825 138.456 45.3788C138.456 43.8283 139.034 43.1346 140.06 42.0685C141.315 40.6915 141.586 39.5919 141.739 37.7613C141.717 36.825 141.717 36.825 140.862 35.7487C140.49 35.8149 140.118 35.8811 139.734 35.9493C136.554 36.3883 133.698 36.53 130.837 34.9462C130.572 34.6814 130.307 34.4166 130.035 34.1437C130.035 33.7465 130.035 33.3492 130.035 32.9399C130.465 32.9813 130.895 33.0227 131.338 33.0653C133.781 33.0873 135.883 31.9479 138.055 30.9337C138.22 28.1986 138.22 28.1986 137.253 25.7174C136.177 25.2076 136.177 25.2076 134.847 25.3161C133.733 26.0821 132.868 27.0508 131.965 28.0497C131.475 28.5713 130.985 29.0922 130.494 29.6124C130.28 29.8461 130.067 30.0798 129.847 30.3205C128.956 31.2105 128.327 31.7243 127.048 31.7754C125.483 31.1015 125.112 29.7927 124.496 28.3005C124.309 27.8726 124.309 27.8726 124.118 27.436C123.811 26.7324 123.513 26.0246 123.218 25.3161C122.821 25.4486 122.424 25.581 122.015 25.7174C122.146 27.5627 122.334 28.9124 123.243 30.5324C124.163 32.2081 124.155 33.4573 124.02 35.3475C122.846 35.6911 121.982 35.9039 120.829 35.418C120.14 35.0178 119.471 34.5828 118.807 34.1437C117.619 36.1649 117.62 38.291 118.005 40.5638C118.757 41.8551 119.699 42.7871 120.812 43.7738C121.516 44.4247 122.167 45.0709 122.817 45.78C122.817 46.3097 122.817 46.8393 122.817 47.3851C121.229 47.3851 119.641 47.3851 118.005 47.3851C119.79 49.682 122.095 50.2174 124.822 50.9963C124.822 51.1287 124.822 51.2612 124.822 51.3976C122.016 51.3976 119.995 50.7385 117.528 49.4916C117.262 49.3571 116.995 49.2227 116.721 49.0841C111.405 46.2954 111.405 46.2954 110.385 43.7738C110.179 42.1503 110.241 41.249 110.987 39.7863C112.735 37.6435 114.643 35.3147 117.203 34.1437C117.6 34.1437 117.997 34.1437 118.406 34.1437C118.414 33.8 118.414 33.8 118.423 33.4494C118.616 30.1701 119.415 26.5023 121.631 23.9839C123.586 22.3051 126.364 22.7874 128.822 22.7682Z" fill="#FFF0CC"/>
<path d="M130.035 55.4101C130.862 55.5857 130.862 55.5857 131.639 55.8114C131.639 56.341 131.639 56.8707 131.639 57.4164C131.837 57.2095 132.036 57.0026 132.24 56.7894C133.758 55.9164 134.75 56.2846 136.451 56.6139C136.716 56.7463 136.98 56.8787 137.253 57.0151C137.043 58.8822 136.56 60.1266 135.549 61.7048C135.315 62.0787 135.081 62.4527 134.841 62.838C133.983 63.9144 133.277 64.4505 132.04 65.0402C130.27 65.1928 129.524 65.2343 128.03 64.2377C128.162 63.5756 128.294 62.9136 128.431 62.2314C128.815 62.2019 128.815 62.2019 129.206 62.1719C129.537 62.1419 129.869 62.1119 130.21 62.081C130.541 62.053 130.871 62.0251 131.211 61.9963C131.485 61.9415 131.758 61.8867 132.04 61.8302C132.172 61.5653 132.304 61.3005 132.441 61.0277C131.117 61.1601 129.794 61.2925 128.431 61.4289C127.829 61.2283 127.428 60.6264 127.428 60.2252C129.233 60.4258 130.011 60.0265 132.441 59.8239C129.662 59.6253 129.662 59.6253 126.827 59.4227C126.694 59.8199 126.562 60.2171 126.426 60.6264C125.088 60.1803 124.988 60.0393 124.345 58.8709C124.207 58.6278 124.069 58.3847 123.927 58.1343C123.619 57.4164 123.619 57.4164 123.619 56.2126C125.887 55.9857 127.319 56.7287 129.233 57.8176C129.291 57.4949 129.349 57.1721 129.408 56.8396C129.634 55.8114 129.634 55.8114 130.035 55.4101Z" fill="#FFF0CC"/>
<path d="M120.411 57.4164C120.675 57.4164 120.94 57.4164 121.213 57.4164C121.757 58.2263 122.254 59.0309 122.741 59.8741C123.618 61.3599 124.473 62.7896 125.649 64.0621C126.426 65.0402 126.426 65.0402 126.385 65.7596C125.876 67.0111 125.104 67.9132 124.245 68.9524C123.923 69.3476 123.601 69.7427 123.269 70.1499C122.847 70.5999 122.847 70.5999 122.416 71.059C122.151 71.059 121.886 71.059 121.614 71.059C120.335 66.4597 120.282 62.154 120.411 57.4164Z" fill="#FFF0CC"/>
<path d="M138.055 59.4227C138.187 59.4227 138.32 59.4227 138.456 59.4227C138.595 63.6106 138.424 68.9135 135.397 72.1609C135.215 72.3269 135.034 72.4929 134.847 72.664C134.31 71.6786 133.776 70.6921 133.243 69.7048C133.09 69.4244 132.937 69.1441 132.779 68.8552C131.639 66.7361 131.639 66.7361 131.639 65.8427C131.978 65.7103 132.317 65.5779 132.666 65.4414C135.097 64.0262 136.688 61.8544 138.055 59.4227Z" fill="#FFF0CC"/>
<path d="M124.822 69.8552C124.822 70.12 124.822 70.3849 124.822 70.6577C125.078 70.5832 125.334 70.5087 125.599 70.432C126.008 70.3451 126.008 70.3451 126.426 70.2565C126.558 70.3889 126.69 70.5213 126.827 70.6577C126.544 73.6317 126.544 73.6317 126.025 74.6702C125.933 75.4878 125.86 76.3075 125.799 77.1279C125.766 77.5676 125.732 78.0072 125.697 78.4602C125.673 78.7985 125.649 79.1368 125.624 79.4853C125.359 79.4853 125.094 79.4853 124.822 79.4853C124.406 78.4592 123.998 77.4312 123.594 76.4006C123.476 76.1113 123.357 75.8219 123.236 75.5237C122.606 73.9012 122.864 74.4107 122.215 72.4634C121.881 71.4602 123.771 69.8552 124.822 69.8552Z" fill="#FFF0CC"/>
<path d="M131.639 69.8552C133.243 70.6577 133.415 71.1415 134.245 72.664C134.965 75.4108 134.569 77.025 133.243 79.4853C131.193 77.341 131.146 74.2122 131.17 71.3991C131.238 70.6577 131.238 70.6577 131.639 69.8552Z" fill="#FFF0CC"/>
<path d="M130.035 55.4101C130.862 55.5857 130.862 55.5857 131.639 55.8114C131.639 56.341 131.639 56.8707 131.639 57.4164C131.374 57.6812 131.109 57.946 130.837 58.2189C130.68 58.4341 130.522 58.6492 130.361 58.8709C129.239 59.7224 128.187 59.4997 126.827 59.4227C126.694 59.8199 126.562 60.2171 126.426 60.6264C125.088 60.1803 124.988 60.0393 124.345 58.8709C124.207 58.6278 124.069 58.3847 123.927 58.1343C123.619 57.4164 123.619 57.4164 123.619 56.2126C125.887 55.9857 127.319 56.7287 129.233 57.8176C129.291 57.4949 129.349 57.1721 129.408 56.8396C129.634 55.8114 129.634 55.8114 130.035 55.4101Z" fill="#FFF0CC"/>
<path d="M162.115 79.8865C162.248 79.8865 162.38 79.8865 162.516 79.8865C162.999 82.7172 163.431 85.4376 163.318 88.3128C162.331 87.3246 162.208 86.598 161.865 85.2533C161.76 84.8509 161.656 84.4485 161.548 84.0339C161.432 83.5699 161.432 83.5699 161.313 83.0966C161.578 83.0966 161.843 83.0966 162.115 83.0966C162.115 82.0373 162.115 80.9779 162.115 79.8865Z" fill="#FFF0CC"/>
<path d="M168.13 83.8991C168.263 83.8991 168.395 83.8991 168.531 83.8991C168.531 85.3556 168.531 86.8122 168.531 88.3129C168.134 88.1804 167.737 88.048 167.328 87.9116C167.386 87.6964 167.444 87.4813 167.504 87.2596C167.767 86.1464 167.951 85.0285 168.13 83.8991Z" fill="#FFF0CC"/>
</g>
<g clip-path="url(#clip2_11_246)">
<rect x="0.483215" y="91.3321" width="255.034" height="72.4527" rx="14.4905" fill="#FFF0CC"/>
<path d="M57.4817 131.753V138.464H55.5749C55.3107 140.247 54.8402 142.014 54.1633 143.764C53.503 145.514 52.5619 146.983 51.3402 148.172C50.6964 148.865 49.3839 149.633 47.4027 150.475C45.4381 151.317 42.4252 152.01 38.3638 152.555C34.3025 153.116 28.8049 153.306 21.8709 153.125C24.2813 153.174 26.799 152.869 29.424 152.208C33.9146 151.102 38.273 149.27 42.4994 146.711C46.7424 144.152 49.8296 141.494 51.7612 138.737C51.8108 138.654 51.8685 138.563 51.9346 138.464H49.7058C48.8143 138.464 47.8733 138.398 46.8827 138.266C45.8921 138.134 44.9593 137.878 44.0843 137.498C43.2259 137.119 42.5242 136.574 41.9794 135.864C41.4346 135.138 41.1622 134.188 41.1622 133.016C41.1622 131.596 41.3685 130.234 41.7813 128.93C42.2105 127.626 42.7306 126.437 43.3414 125.364C43.9523 124.274 44.5631 123.325 45.174 122.516C45.7848 121.707 46.2966 121.08 46.7093 120.634C47.1386 120.188 47.3532 119.965 47.3532 119.965C47.3532 119.965 47.6256 120.064 48.1704 120.263C48.7317 120.461 49.4169 120.807 50.2258 121.303C51.0513 121.781 51.885 122.467 52.727 123.358C53.5855 124.25 54.3202 125.38 54.931 126.751C55.5419 128.121 55.9133 129.788 56.0454 131.753H57.4817ZM46.536 131.753H52.7023C51.6291 130.647 50.3497 129.739 48.8638 129.029C47.3945 128.319 46.0737 127.799 44.9016 127.469C43.7459 127.122 43.1681 126.949 43.1681 126.949C43.1681 126.949 43.069 127.114 42.8709 127.444C42.6728 127.758 42.5077 128.154 42.3756 128.633C42.2435 129.112 42.2435 129.59 42.3756 130.069C42.5242 130.531 42.9122 130.928 43.5395 131.258C44.1669 131.588 45.1657 131.753 46.536 131.753ZM65.3072 119.668L61.1963 122.417L57.3579 116.721L63.0784 112.883L64.911 115.656L69.0218 112.883L72.8602 118.603L67.1397 122.417L65.3072 119.668ZM74.5194 131.753H75.3862V138.464C74.2966 138.464 73.3885 138.217 72.6621 137.721C71.9522 137.209 71.3744 136.566 70.9286 135.79C70.4829 134.997 70.1279 134.163 69.8638 133.288C69.6161 132.413 69.4098 131.58 69.2447 130.787C69.0961 129.995 68.9475 129.343 68.7989 128.831C68.8485 129.821 68.8154 130.87 68.6999 131.976C68.6008 133.082 68.3119 134.13 67.8331 135.121C67.3544 136.095 66.6032 136.896 65.5796 137.523C64.5725 138.15 63.1857 138.464 61.4192 138.464H57.2589V131.753H62.1621C63.0867 131.753 63.8709 131.638 64.5147 131.406C65.1751 131.175 65.7117 130.87 66.1244 130.49C66.5537 130.11 66.8921 129.698 67.1397 129.252C67.4039 128.806 67.602 128.36 67.7341 127.915C67.8827 127.452 67.9817 127.031 68.0312 126.652C68.0973 126.272 68.1468 125.967 68.1798 125.735C68.2128 125.504 68.2624 125.389 68.3284 125.389C68.3944 125.372 68.4935 125.504 68.6256 125.785C68.7742 126.115 68.997 126.602 69.2942 127.246C69.6079 127.873 69.9959 128.534 70.4581 129.227C70.9369 129.921 71.5065 130.515 72.1668 131.01C72.8437 131.505 73.6279 131.753 74.5194 131.753ZM85.0442 143.268L89.3036 140.421L93.1421 146.116L87.4463 149.955L85.5147 147.082L81.2553 149.955L77.4416 144.259L83.1374 140.421L85.0442 143.268ZM93.7859 131.753H94.6527V138.464C93.563 138.464 92.655 138.217 91.9286 137.721C91.2187 137.209 90.6409 136.566 90.1951 135.79C89.7494 134.997 89.3944 134.163 89.1303 133.288C88.8826 132.397 88.6763 131.555 88.5112 130.763C88.3626 129.97 88.2057 129.326 88.0406 128.831C88.1067 129.821 88.0819 130.87 87.9664 131.976C87.8673 133.082 87.5784 134.13 87.0996 135.121C86.6208 136.095 85.8697 136.896 84.8461 137.523C83.839 138.15 82.4522 138.464 80.6857 138.464H75.2376V131.753H81.4286C82.3532 131.753 83.1374 131.638 83.7812 131.406C84.4251 131.175 84.9616 130.87 85.3909 130.49C85.8201 130.11 86.1586 129.698 86.4062 129.252C86.6704 128.806 86.8685 128.36 87.0006 127.915C87.1326 127.452 87.2317 127.031 87.2977 126.652C87.3638 126.272 87.4133 125.967 87.4463 125.735C87.4793 125.504 87.5289 125.389 87.5949 125.389C87.6609 125.372 87.76 125.504 87.8921 125.785C88.0406 126.115 88.2635 126.602 88.5607 127.246C88.8744 127.873 89.2623 128.534 89.7246 129.227C90.2034 129.921 90.773 130.515 91.4333 131.01C92.1102 131.505 92.8944 131.753 93.7859 131.753ZM107.406 138.464H94.4298V131.753H107.406V138.464ZM120.036 138.464H107.059V131.753H120.036V138.464ZM132.666 138.464H119.689V131.753H132.666V138.464ZM145.295 138.464H132.319V131.753H145.295V138.464ZM157.677 144.668L158.792 146.525L145.171 148.754L145.221 148.432L157.677 144.668ZM162.878 128.063C163.01 128.905 162.894 130.143 162.531 131.778C162.184 133.396 161.788 134.915 161.342 136.334C160.913 137.754 160.699 138.464 160.699 138.464H145.048V131.753H149.357C151.354 126.701 152.964 122.656 154.186 119.619C154.186 119.619 154.565 119.792 155.325 120.139C156.084 120.469 156.976 120.989 157.999 121.699C159.039 122.392 160.013 123.267 160.921 124.324C161.829 125.38 162.482 126.627 162.878 128.063ZM149.802 131.753H159.51C158.866 131.093 157.917 130.35 156.662 129.524C155.407 128.699 153.765 127.807 151.734 126.85C151.239 128.022 150.595 129.656 149.802 131.753ZM179.222 131.753H179.445V138.464C178.867 138.481 178.314 138.406 177.786 138.241C177.819 138.869 177.811 139.488 177.761 140.099C177.431 143.252 176.217 145.951 174.121 148.196C173.526 148.939 172.239 149.732 170.257 150.574C168.293 151.416 165.272 152.101 161.194 152.629C157.099 153.174 151.585 153.347 144.651 153.149C147.062 153.199 149.579 152.902 152.204 152.258C155.523 151.432 158.693 150.202 161.714 148.568C164.719 146.933 167.278 145.15 169.391 143.219C171.504 141.287 172.866 139.488 173.477 137.82C172.272 136.995 171.232 136.12 170.357 135.195C169.482 134.271 168.805 133.478 168.326 132.818C167.864 132.141 167.632 131.803 167.632 131.803L170.703 123.036C170.786 123.713 171.108 124.538 171.669 125.513C172.247 126.47 172.957 127.428 173.799 128.385C174.657 129.326 175.565 130.127 176.523 130.787C177.48 131.431 178.38 131.753 179.222 131.753ZM191.035 102.843C191.035 102.843 191.158 102.892 191.406 102.991C191.654 103.09 191.934 103.272 192.248 103.536C192.578 103.8 192.867 104.18 193.115 104.675C193.362 105.154 193.486 105.781 193.486 106.557C193.486 108.274 193.016 109.851 192.075 111.287L183.308 112.724C183.308 112.724 183.688 112.649 184.447 112.501C185.207 112.336 185.834 112.179 186.329 112.03C186.874 111.849 188.121 111.188 190.069 110.049C190.267 109.934 190.589 109.727 191.035 109.43C191.48 109.116 191.91 108.753 192.322 108.34C192.735 107.911 192.941 107.474 192.941 107.028C192.941 106.764 192.908 106.623 192.842 106.607C192.743 107.135 192.529 107.622 192.198 108.068C191.885 108.497 191.381 108.745 190.688 108.811C190.16 108.811 189.755 108.596 189.474 108.167C189.21 107.738 189.144 107.193 189.276 106.533C189.507 105.757 189.854 104.948 190.316 104.106C190.795 103.264 191.035 102.843 191.035 102.843ZM190.391 106.656C191.431 106.64 192.174 106.508 192.619 106.26C192.19 105.781 191.654 105.443 191.01 105.245C190.382 105.03 190.069 104.923 190.069 104.923C190.069 104.923 189.994 105.022 189.846 105.22C189.714 105.418 189.648 105.649 189.648 105.914C189.648 106.293 189.895 106.541 190.391 106.656ZM200.247 148.444L194.551 152.283L190.713 146.587L196.433 142.748L200.247 148.444ZM216.641 125.661C217.945 127.312 218.465 129.12 218.201 131.084C218.102 131.877 217.953 132.595 217.755 133.239C217.128 135.171 216.195 136.533 214.957 137.325C213.719 138.117 212.439 138.538 211.118 138.588C209.798 138.654 208.683 138.538 207.775 138.241C205.645 137.564 203.128 136.285 200.222 134.403C200.899 136.087 201.411 137.432 201.757 138.439C198.885 138.39 195.137 138.39 190.515 138.439C185.892 138.472 182.144 138.472 179.272 138.439V131.728H183.085C182.557 130.507 182.375 129.244 182.54 127.939C182.788 125.991 183.308 124.472 184.101 123.383C184.893 122.293 185.818 121.526 186.874 121.08C187.667 120.651 188.5 120.337 189.375 120.139C193.024 119.33 196.119 118.678 198.662 118.182C197.787 117.472 197.102 116.754 196.607 116.028C196.111 115.301 195.765 114.691 195.566 114.195C195.368 113.7 195.269 113.452 195.269 113.452L196.879 104.859C196.961 106.015 197.44 107.096 198.315 108.103C199.19 109.094 200.181 109.977 201.287 110.753C202.41 111.513 203.4 112.115 204.259 112.561C205.134 112.99 205.571 113.205 205.571 113.205V120.609C205.571 120.609 204.911 120.436 203.59 120.089C202.286 119.726 200.866 119.52 199.331 119.47C196.689 119.536 194.32 119.908 192.223 120.584C192.504 120.651 192.76 120.717 192.991 120.783C195.253 121.509 197.993 122.929 201.213 125.042C203.706 126.61 205.967 128.038 207.998 129.326C209.121 130.053 210.293 130.688 211.514 131.233C212.885 131.844 214.04 132.182 214.981 132.248C215.691 132.265 216.327 132.042 216.888 131.58C217.73 130.771 218.077 129.788 217.928 128.633C217.78 127.477 217.351 126.487 216.641 125.661ZM183.853 127.444C183.259 127.989 182.92 128.649 182.838 129.425C182.772 130.201 182.879 130.969 183.16 131.728H195.987C194.815 130.985 193.742 130.309 192.768 129.698C191.629 128.955 190.457 128.319 189.252 127.791C187.865 127.18 186.709 126.842 185.785 126.775C185.058 126.759 184.414 126.982 183.853 127.444Z" fill="#822222"/>
<mask id="path-21-inside-1_11_246" fill="white">
<path d="M58.4454 98.5773H19.3209C12.9186 98.5773 7.72847 103.767 7.72847 110.17V149.294H58.4454V98.5773Z"/>
</mask>
<path d="M58.4454 97.1283H19.3209C12.1183 97.1283 6.27942 102.967 6.27942 110.17H9.17753C9.17753 104.568 13.7189 100.026 19.3209 100.026H58.4454V97.1283ZM7.72847 149.294H58.4454H7.72847ZM58.4454 149.294V98.5773V149.294ZM19.3209 97.1283C12.1183 97.1283 6.27942 102.967 6.27942 110.17V149.294H9.17753V110.17C9.17753 104.568 13.7189 100.026 19.3209 100.026V97.1283Z" fill="#AD917B" mask="url(#path-21-inside-1_11_246)"/>
<path d="M28.4284 104.189C28.4284 104.189 29.7984 110.662 34.7855 108.402C39.7727 106.142 37.9289 101.808 36.2644 99.196C34.6 96.5841 32.4616 96.1101 29.1967 98.1909C25.9318 100.272 25.4579 102.41 24.9842 104.548C24.5105 106.686 23.563 110.963 26.1173 112.09C28.6717 113.216 28.9662 109.356 27.0648 107.813C25.1635 106.27 21.9561 105.559 21.9561 105.559C21.9561 105.559 25.2786 100.688 22.4874 100.63C19.6962 100.572 21.4823 107.698 21.4823 107.698C21.4823 107.698 18.3965 111.5 14.0625 113.344C9.72837 115.188 5.16126 116.262 4.14776 114.153C3.13427 112.044 8.12154 109.785 12.8717 108.594C17.6219 107.403 26.2325 106.507 21.8409 111.142C17.4493 115.777 17.9165 103.543 17.9165 103.543" stroke="#AD917B" stroke-width="1.44905"/>
<mask id="path-24-inside-2_11_246" fill="white">
<path d="M197.555 156.54H236.679C243.081 156.54 248.271 151.349 248.271 144.947V105.823H197.555V156.54Z"/>
</mask>
<path d="M197.555 157.989H236.679C243.882 157.989 249.721 152.15 249.721 144.947H246.822C246.822 150.549 242.281 155.09 236.679 155.09H197.555V157.989ZM248.271 105.823H197.555H248.271ZM197.555 105.823V156.54V105.823ZM236.679 157.989C243.882 157.989 249.721 152.15 249.721 144.947V105.823H246.822V144.947C246.822 150.549 242.281 155.09 236.679 155.09V157.989Z" fill="#AD917B" mask="url(#path-24-inside-2_11_246)"/>
<path d="M227.572 150.928C227.572 150.928 226.202 144.455 221.214 146.715C216.227 148.975 218.071 153.309 219.735 155.921C221.4 158.533 223.538 159.007 226.803 156.926C230.068 154.845 230.542 152.707 231.016 150.569C231.489 148.43 232.437 144.154 229.883 143.027C227.328 141.901 227.034 145.761 228.935 147.304C230.836 148.847 234.044 149.557 234.044 149.557C234.044 149.557 230.721 154.429 233.513 154.487C236.304 154.545 234.518 147.419 234.518 147.419C234.518 147.419 237.603 143.617 241.937 141.773C246.272 139.929 250.839 138.855 251.852 140.963C252.866 143.072 247.878 145.332 243.128 146.523C238.378 147.714 229.767 148.61 234.159 143.975C238.551 139.34 238.083 151.574 238.083 151.574" stroke="#AD917B" stroke-width="1.44905"/>
</g>
<rect x="0.845479" y="91.6943" width="254.309" height="71.7282" rx="14.1283" stroke="#822222" stroke-width="0.724527"/>
<defs>
<filter id="filter0_d_11_246" x="78.0076" y="0.0416439" width="99.2602" height="128.483" filterUnits="userSpaceOnUse" color-interpolation-filters="sRGB">
<feFlood flood-opacity="0" result="BackgroundImageFix"/>
<feColorMatrix in="SourceAlpha" type="matrix" values="0 0 0 0 0 0 0 0 0 0 0 0 0 0 0 0 0 0 127 0" result="hardAlpha"/>
<feMorphology radius="3.62264" operator="dilate" in="SourceAlpha" result="effect1_dropShadow_11_246"/>
<feOffset dy="3.62264"/>
<feGaussianBlur stdDeviation="1.08679"/>
<feComposite in2="hardAlpha" operator="out"/>
<feColorMatrix type="matrix" values="0 0 0 0 0 0 0 0 0 0 0 0 0 0 0 0 0 0 0.15 0"/>
<feBlend mode="normal" in2="BackgroundImageFix" result="effect1_dropShadow_11_246"/>
<feBlend mode="normal" in="SourceGraphic" in2="effect1_dropShadow_11_246" result="shape"/>
</filter>
<clipPath id="clip0_11_246">
<rect x="168.573" y="11.6341" width="87.6678" height="116.89" rx="5.84452" transform="rotate(10 168.573 11.6341)" fill="white"/>
</clipPath>
<clipPath id="clip1_11_246">
<rect width="70.2791" height="70.2791" fill="white" transform="translate(175.878 20.279) rotate(10)"/>
</clipPath>
<clipPath id="clip2_11_246">
<rect x="0.483215" y="91.3321" width="255.034" height="72.4527" rx="14.4905" fill="white"/>
</clipPath>
</defs>
</svg>
