<svg width="256" height="164" viewBox="0 0 256 164" fill="none" xmlns="http://www.w3.org/2000/svg">
<g clip-path="url(#clip0_6_513)">
<rect x="168.574" y="11.6341" width="87.6678" height="116.89" rx="5.84452" transform="rotate(10 168.574 11.6341)" fill="#FFF0CC"/>
<g clip-path="url(#clip1_6_513)">
<path d="M236.058 60.7402C235.379 59.6565 227.589 50.6627 226.048 49.8983C225.377 49.5683 224.689 49.3144 223.964 49.131C220.609 48.2829 216.672 48.6871 213.861 50.8167C213.616 51.0023 213.476 51.1083 213.476 51.1083C213.476 51.1083 213.59 50.974 213.791 50.7391C214.736 49.6391 215.985 48.7594 217.273 48.1056C217.866 47.8044 218.483 47.5499 219.116 47.346C219.29 47.2901 220.908 46.7524 220.989 46.8746C220.989 46.8743 220.332 45.8818 220.332 45.8818C219.264 44.3564 218.059 42.9911 216.148 42.6543C213.78 42.2367 211.497 43.3481 210.308 45.2779C209.701 44.6355 208.649 44.1036 207.397 43.8829C206.145 43.6621 204.975 43.8021 204.185 44.1982C203.727 41.9779 201.962 40.153 199.594 39.7354C197.684 39.3985 196.084 40.2689 194.558 41.3371C194.558 41.3371 193.602 42.0452 193.602 42.0454C193.719 41.9581 195.056 43.0169 195.2 43.1289C195.726 43.5371 196.218 43.9872 196.673 44.4732C197.659 45.5278 198.532 46.7818 199.044 48.1388C199.152 48.4281 199.214 48.5934 199.214 48.5934C199.214 48.5934 199.118 48.4459 198.951 48.1877C197.038 45.2249 193.477 43.4987 190.035 43.1483C189.29 43.0726 188.557 43.0757 187.813 43.1563C186.104 43.3476 175.708 49.1349 174.699 49.9209C171.783 52.1926 169.665 55.5106 168.973 59.438C167.489 67.8539 173.108 75.8795 181.524 77.3635C189.223 78.721 196.594 74.1335 198.931 66.8991C199.976 67.9849 201.363 68.7614 202.961 69.0432C204.559 69.325 206.127 69.0694 207.481 68.4068C207.203 76.0039 212.56 82.8359 220.259 84.1934C228.675 85.6774 236.7 80.0577 238.184 71.6418C238.877 67.7144 238.022 63.8725 236.058 60.7402ZM182.186 71.6364C177.11 70.7415 173.721 65.9015 174.616 60.8262C175.511 55.7509 180.351 52.362 185.427 53.2569C190.502 54.1519 193.891 58.9918 192.996 64.067C192.101 69.1423 187.261 72.5313 182.186 71.6364ZM203.663 65.0579C202.325 64.8218 201.431 63.5452 201.667 62.2066C201.903 60.8679 203.18 59.9741 204.518 60.2101C205.857 60.4462 206.751 61.7228 206.515 63.0614C206.279 64.4 205.002 65.2939 203.663 65.0579ZM221.596 78.5854C216.52 77.6905 213.132 72.8505 214.026 67.7753C214.921 62.7 219.761 59.3111 224.837 60.206C229.912 61.1009 233.301 65.9408 232.406 71.0161C231.511 76.0913 226.671 79.4803 221.596 78.5854Z" fill="#822222"/>
</g>
</g>
<rect x="168.867" y="12.0537" width="86.9433" height="116.166" rx="5.48225" transform="rotate(10 168.867 12.0537)" stroke="#822222" stroke-width="0.724527"/>
<rect x="0.902882" y="27.1513" width="86.9433" height="116.166" rx="5.48225" transform="rotate(-10 0.902882 27.1513)" fill="#FFF0CC"/>
<rect x="0.902882" y="27.1513" width="86.9433" height="116.166" rx="5.48225" transform="rotate(-10 0.902882 27.1513)" stroke="#822222" stroke-width="0.724527"/>
<path d="M45.7561 48.8578C54.1024 47.3861 62.044 52.8597 63.494 61.0832M68.4547 77.5726L83.8575 88.1988M72.5615 59.4844C74.8815 72.6422 65.9367 85.2175 52.5825 87.5722C39.2283 89.9269 26.5219 81.1693 24.2018 68.0115C21.8818 54.8538 30.8266 42.2784 44.1808 39.9237C57.535 37.569 70.2414 46.3266 72.5615 59.4844Z" stroke="#822222" stroke-width="5.79622" stroke-linecap="round" stroke-linejoin="round"/>
<g filter="url(#filter0_d_6_513)">
<rect x="83.8038" y="2.21521" width="87.6678" height="116.89" rx="5.84452" fill="#822222"/>
<path d="M120.01 55.4101C119.859 55.601 119.709 55.7918 119.554 55.9885C117.819 58.3625 116.919 60.7924 116.07 63.5762C115.599 65.0402 115.599 65.0402 114.983 66.432C114.358 67.9387 114.007 69.4175 113.694 71.0088C112.859 75.0095 111.743 78.9211 110.62 82.8489C110.103 84.6623 109.626 86.48 109.182 88.3128C107.594 88.3128 106.006 88.3128 104.37 88.3128C103.953 84.7558 103.841 81.2058 103.744 77.6295C103.726 77.0292 103.709 76.4289 103.691 75.8285C103.649 74.3725 103.608 72.9164 103.568 71.4602C102.915 72.7685 103.029 74.2217 102.967 75.6624C102.942 76.1669 102.942 76.1669 102.917 76.6816C102.848 78.1242 102.782 79.5669 102.716 81.0097C102.668 82.0612 102.617 83.1125 102.566 84.1639C102.552 84.4929 102.537 84.8218 102.523 85.1607C102.411 87.465 102.411 87.465 101.964 87.9116C100.094 88.0817 99.0832 87.7885 97.5532 86.7078C97.4209 87.2375 97.2886 87.7671 97.1522 88.3128C96.3582 88.3128 95.5643 88.3128 94.7462 88.3128C94.7043 86.0059 94.8652 83.804 95.1472 81.5166C95.5669 77.8841 95.6323 74.3101 95.5482 70.6577C95.472 70.9053 95.3959 71.1529 95.3174 71.408C93.4417 77.4343 91.2023 83.0938 88.3301 88.7141C87.8008 88.7141 87.2714 88.7141 86.7261 88.7141C87.9562 82.852 89.864 77.1755 91.7888 71.5104C91.9379 71.0645 92.0871 70.6187 92.2408 70.1594C94.03 64.9681 94.03 64.9681 96.4489 63.3866C99.0879 62.2035 101.991 61.6587 104.796 61.0026C105.662 60.7986 106.527 60.5933 107.391 60.3852C108.174 60.1968 108.958 60.0125 109.742 59.8285C111.898 59.2231 113.859 58.517 115.523 56.965C117.068 55.5433 117.879 55.3638 120.01 55.4101Z" fill="#FFF0CC"/>
<path d="M138.857 55.8113C139.926 56.2822 140.715 56.8129 141.644 57.5417C143.526 58.8965 145.607 59.5849 147.779 60.3505C148.639 60.6639 149.498 60.9785 150.356 61.2941C150.782 61.4504 151.209 61.6068 151.648 61.7678C163.785 66.2895 163.785 66.2895 166.526 71.4602C167.177 72.9124 167.487 74.2105 167.67 75.7893C167.722 76.2337 167.773 76.678 167.826 77.1357C167.902 77.827 167.902 77.827 167.98 78.5323C168.061 79.2096 168.061 79.2096 168.143 79.9006C168.462 82.7177 168.602 85.4785 168.531 88.3128C167.936 88.1142 167.936 88.1142 167.328 87.9116C166.843 86.7942 166.843 86.7942 166.376 85.3066C166.249 84.909 166.249 84.909 166.12 84.5034C165.85 83.6512 165.587 82.7972 165.323 81.9429C165.146 81.3827 164.969 80.8226 164.791 80.2627C163.919 77.5005 163.093 74.7447 162.465 71.9145C162.029 70.8474 161.471 70.4626 160.511 69.8552C160.627 70.2773 160.743 70.6993 160.862 71.1342C161.329 73.0041 161.607 74.8865 161.885 76.7925C162.052 77.874 162.233 78.9459 162.433 80.0213C162.516 80.4683 162.516 80.4683 162.6 80.9242C162.708 81.5032 162.818 82.0818 162.931 82.6599C163.286 84.5734 163.366 86.3664 163.318 88.3128C162.415 87.409 162.292 86.9338 161.968 85.7188C161.869 85.3647 161.771 85.0107 161.669 84.6459C161.466 83.8995 161.265 83.1523 161.067 82.4045C160.968 82.05 160.868 81.6954 160.765 81.3301C160.634 80.8429 160.634 80.8429 160.5 80.3459C159.865 78.9441 158.849 78.4322 157.479 77.8301C155.972 76.6706 155.675 75.2883 155.298 73.4665C155.1 71.8633 154.976 70.2646 154.897 68.6514C152.912 68.8501 152.912 68.8501 150.887 69.0527C151.408 69.243 151.929 69.4334 152.466 69.6295C154.045 70.2063 154.045 70.2063 154.496 70.6577C154.587 71.1918 154.654 71.7301 154.711 72.269C154.746 72.6032 154.781 72.9374 154.817 73.2817C155.778 83.2111 155.778 83.2111 154.095 87.9116C152.639 87.9116 151.184 87.9116 149.684 87.9116C148.903 85.4524 148.135 83.0034 147.554 80.4884C145.703 72.9622 142.924 65.3135 139.339 58.443C138.857 57.4164 138.857 57.4164 138.857 55.8113Z" fill="#FFF0CC"/>
<path d="M128.822 22.7681C129.445 22.7615 130.067 22.7506 130.69 22.7352C131.59 22.7132 132.489 22.7045 133.389 22.6986C133.665 22.6895 133.942 22.6804 134.227 22.671C135.756 22.6777 136.397 22.865 137.602 23.8347C138.609 25.1085 139.173 26.4105 139.709 27.9243C140.76 31.1814 140.76 31.1814 143.049 33.5497C143.419 33.7209 143.789 33.8921 144.17 34.0685C146.353 35.1997 148.016 36.4142 149.283 38.5575C149.655 40.4876 149.296 41.7886 148.232 43.4462C145.442 47.1243 140.957 50.7947 136.28 51.5559C135.401 51.6584 134.527 51.7407 133.644 51.7988C133.644 51.534 133.644 51.2692 133.644 50.9963C133.992 50.8944 134.341 50.7925 134.7 50.6875C135.162 50.5494 135.624 50.4113 136.1 50.269C136.556 50.134 137.012 49.999 137.482 49.86C139.965 49.1293 139.965 49.1293 141.664 47.385C141.284 47.2775 140.903 47.1699 140.511 47.059C139.258 46.5825 139.258 46.5825 138.456 45.3788C138.456 43.8283 139.034 43.1346 140.06 42.0684C141.315 40.6914 141.586 39.5919 141.739 37.7612C141.717 36.825 141.717 36.825 140.862 35.7487C140.49 35.8149 140.118 35.8811 139.734 35.9493C136.554 36.3882 133.698 36.53 130.837 34.9462C130.572 34.6814 130.307 34.4165 130.035 34.1437C130.035 33.7465 130.035 33.3492 130.035 32.9399C130.465 32.9813 130.895 33.0227 131.338 33.0653C133.781 33.0873 135.883 31.9478 138.055 30.9337C138.22 28.1986 138.22 28.1986 137.253 25.7174C136.177 25.2076 136.177 25.2076 134.847 25.3161C133.733 26.0821 132.868 27.0508 131.965 28.0497C131.475 28.5713 130.985 29.0922 130.494 29.6124C130.28 29.8461 130.067 30.0797 129.847 30.3205C128.956 31.2105 128.327 31.7243 127.048 31.7754C125.483 31.1015 125.112 29.7927 124.496 28.3004C124.309 27.8726 124.309 27.8726 124.118 27.436C123.811 26.7323 123.513 26.0246 123.218 25.3161C122.821 25.4485 122.424 25.581 122.015 25.7174C122.146 27.5627 122.334 28.9124 123.243 30.5324C124.163 32.2081 124.155 33.4573 124.02 35.3475C122.846 35.6911 121.982 35.9039 120.829 35.418C120.14 35.0178 119.471 34.5828 118.807 34.1437C117.619 36.1649 117.62 38.2909 118.005 40.5637C118.757 41.855 119.699 42.7871 120.812 43.7738C121.516 44.4247 122.167 45.0709 122.817 45.78C122.817 46.3097 122.817 46.8393 122.817 47.385C121.229 47.385 119.641 47.385 118.005 47.385C119.79 49.682 122.095 50.2173 124.822 50.9963C124.822 51.1287 124.822 51.2611 124.822 51.3976C122.016 51.3976 119.995 50.7385 117.528 49.4916C117.262 49.3571 116.995 49.2226 116.721 49.0841C111.405 46.2953 111.405 46.2953 110.385 43.7738C110.179 42.1503 110.241 41.2489 110.987 39.7863C112.735 37.6435 114.643 35.3147 117.203 34.1437C117.6 34.1437 117.997 34.1437 118.406 34.1437C118.414 33.8 118.414 33.8 118.423 33.4493C118.616 30.1701 119.415 26.5023 121.631 23.9838C123.586 22.3051 126.364 22.7873 128.822 22.7681Z" fill="#FFF0CC"/>
<path d="M130.035 55.4101C130.862 55.5856 130.862 55.5856 131.639 55.8113C131.639 56.341 131.639 56.8707 131.639 57.4164C131.837 57.2095 132.036 57.0026 132.24 56.7894C133.758 55.9164 134.75 56.2845 136.451 56.6139C136.716 56.7463 136.98 56.8787 137.253 57.0151C137.043 58.8822 136.56 60.1266 135.549 61.7047C135.315 62.0787 135.081 62.4527 134.841 62.838C133.983 63.9143 133.277 64.4504 132.04 65.0402C130.27 65.1928 129.524 65.2343 128.03 64.2377C128.162 63.5756 128.294 62.9135 128.431 62.2314C128.815 62.2019 128.815 62.2019 129.206 62.1718C129.537 62.1418 129.869 62.1118 130.21 62.0809C130.541 62.053 130.871 62.0251 131.211 61.9963C131.485 61.9415 131.758 61.8866 132.04 61.8301C132.172 61.5653 132.304 61.3005 132.441 61.0276C131.117 61.16 129.794 61.2925 128.431 61.4289C127.829 61.2283 127.428 60.6264 127.428 60.2251C129.233 60.4258 130.011 60.0265 132.441 59.8239C129.662 59.6253 129.662 59.6253 126.827 59.4226C126.694 59.8199 126.562 60.2171 126.426 60.6264C125.088 60.1802 124.988 60.0393 124.345 58.8709C124.207 58.6278 124.069 58.3847 123.927 58.1342C123.619 57.4164 123.619 57.4164 123.619 56.2126C125.887 55.9856 127.319 56.7286 129.233 57.8176C129.291 57.4949 129.349 57.1721 129.408 56.8396C129.634 55.8113 129.634 55.8113 130.035 55.4101Z" fill="#FFF0CC"/>
<path d="M120.411 57.4164C120.675 57.4164 120.94 57.4164 121.213 57.4164C121.757 58.2263 122.254 59.0309 122.741 59.8741C123.618 61.3598 124.473 62.7896 125.649 64.0621C126.426 65.0402 126.426 65.0402 126.385 65.7596C125.876 67.0111 125.104 67.9132 124.245 68.9524C123.923 69.3476 123.601 69.7427 123.269 70.1499C122.847 70.5999 122.847 70.5999 122.416 71.059C122.151 71.059 121.886 71.059 121.614 71.059C120.335 66.4597 120.282 62.154 120.411 57.4164Z" fill="#FFF0CC"/>
<path d="M138.055 59.4226C138.187 59.4226 138.32 59.4226 138.456 59.4226C138.595 63.6106 138.424 68.9134 135.397 72.1608C135.215 72.3269 135.034 72.4929 134.847 72.664C134.31 71.6786 133.776 70.6921 133.243 69.7047C133.09 69.4244 132.937 69.1441 132.779 68.8552C131.639 66.7361 131.639 66.7361 131.639 65.8427C131.978 65.7103 132.317 65.5779 132.666 65.4414C135.097 64.0261 136.688 61.8544 138.055 59.4226Z" fill="#FFF0CC"/>
<path d="M124.822 69.8552C124.822 70.12 124.822 70.3848 124.822 70.6577C125.078 70.5832 125.334 70.5087 125.599 70.432C126.008 70.3451 126.008 70.3451 126.426 70.2564C126.558 70.3889 126.69 70.5213 126.827 70.6577C126.544 73.6317 126.544 73.6317 126.025 74.6702C125.933 75.4878 125.86 76.3075 125.799 77.1279C125.766 77.5676 125.732 78.0072 125.697 78.4602C125.673 78.7985 125.649 79.1367 125.624 79.4853C125.359 79.4853 125.094 79.4853 124.822 79.4853C124.406 78.4592 123.998 77.4312 123.594 76.4006C123.475 76.1112 123.357 75.8218 123.236 75.5237C122.606 73.9012 122.864 74.4107 122.215 72.4633C121.881 71.4602 123.771 69.8552 124.822 69.8552Z" fill="#FFF0CC"/>
<path d="M131.639 69.8552C133.243 70.6577 133.415 71.1415 134.245 72.664C134.965 75.4108 134.569 77.025 133.243 79.4853C131.193 77.341 131.146 74.2122 131.17 71.3991C131.238 70.6577 131.238 70.6577 131.639 69.8552Z" fill="#FFF0CC"/>
<path d="M130.035 55.4101C130.862 55.5856 130.862 55.5856 131.639 55.8113C131.639 56.341 131.639 56.8707 131.639 57.4164C131.374 57.6812 131.109 57.946 130.837 58.2189C130.68 58.434 130.522 58.6492 130.361 58.8709C129.239 59.7224 128.187 59.4997 126.827 59.4226C126.694 59.8199 126.562 60.2171 126.426 60.6264C125.088 60.1802 124.988 60.0393 124.345 58.8709C124.207 58.6278 124.069 58.3847 123.927 58.1342C123.619 57.4164 123.619 57.4164 123.619 56.2126C125.887 55.9856 127.319 56.7286 129.233 57.8176C129.291 57.4949 129.349 57.1721 129.408 56.8396C129.634 55.8113 129.634 55.8113 130.035 55.4101Z" fill="#FFF0CC"/>
<path d="M162.115 79.8865C162.248 79.8865 162.38 79.8865 162.516 79.8865C162.999 82.7172 163.431 85.4376 163.318 88.3128C162.331 87.3245 162.208 86.598 161.865 85.2533C161.76 84.8508 161.656 84.4484 161.548 84.0338C161.432 83.5699 161.432 83.5699 161.313 83.0965C161.578 83.0965 161.843 83.0965 162.115 83.0965C162.115 82.0372 162.115 80.9779 162.115 79.8865Z" fill="#FFF0CC"/>
<path d="M168.13 83.899C168.263 83.899 168.395 83.899 168.531 83.899C168.531 85.3556 168.531 86.8121 168.531 88.3128C168.134 88.1804 167.737 88.048 167.328 87.9116C167.386 87.6964 167.444 87.4812 167.504 87.2595C167.767 86.1464 167.951 85.0285 168.13 83.899Z" fill="#FFF0CC"/>
</g>
<g clip-path="url(#clip2_6_513)">
<rect x="0.483215" y="91.332" width="255.034" height="72.4527" rx="14.4905" fill="#FFF0CC"/>
<path d="M57.5313 131.753V138.464H55.6244C55.3603 140.247 54.8898 142.014 54.2129 143.764C53.5525 145.514 52.6115 146.983 51.3898 148.172C50.7459 148.865 49.4334 149.633 47.4523 150.475C45.4876 151.317 42.4747 152.01 38.4134 152.555C34.3521 153.116 28.8544 153.306 21.9205 153.124C24.3308 153.174 26.8485 152.869 29.4735 152.208C33.9641 151.102 38.3226 149.27 42.549 146.711C46.7919 144.152 49.8792 141.494 51.8108 138.737C51.8603 138.654 51.9181 138.563 51.9841 138.464H49.7553C48.8638 138.464 47.9228 138.398 46.9322 138.266C45.9417 138.134 45.0089 137.878 44.1339 137.498C43.2754 137.119 42.5737 136.574 42.0289 135.864C41.4841 135.137 41.2117 134.188 41.2117 133.016C41.2117 131.596 41.4181 130.234 41.8308 128.93C42.2601 127.626 42.7801 126.437 43.391 125.364C44.0018 124.274 44.6127 123.325 45.2235 122.516C45.8343 121.707 46.3461 121.08 46.7589 120.634C47.1881 120.188 47.4027 119.965 47.4027 119.965C47.4027 119.965 47.6751 120.064 48.22 120.263C48.7813 120.461 49.4664 120.807 50.2754 121.303C51.1008 121.781 51.9346 122.467 52.7766 123.358C53.635 124.25 54.3697 125.38 54.9806 126.751C55.5914 128.121 55.9629 129.788 56.0949 131.753H57.5313ZM46.5855 131.753H52.7518C51.6787 130.647 50.3992 129.739 48.9134 129.029C47.444 128.319 46.1233 127.799 44.9511 127.469C43.7954 127.122 43.2176 126.949 43.2176 126.949C43.2176 126.949 43.1185 127.114 42.9204 127.444C42.7223 127.758 42.5572 128.154 42.4252 128.633C42.2931 129.112 42.2931 129.59 42.4252 130.069C42.5737 130.531 42.9617 130.928 43.5891 131.258C44.2164 131.588 45.2152 131.753 46.5855 131.753ZM90.4675 123.68C91.4251 124.72 91.9038 125.867 91.9038 127.122C91.9038 128.129 91.648 129.285 91.1362 130.589C90.6409 131.877 90.0713 133.115 89.4274 134.304C88.7836 135.492 88.2057 136.483 87.6939 137.275C87.1987 138.068 86.951 138.464 86.951 138.464H81.4782C79.9923 138.382 78.9027 137.729 78.2093 136.508C77.5159 135.27 77.0289 133.908 76.7482 132.422C76.4841 130.919 76.2529 129.722 76.0548 128.831C76.1374 130.168 76.0631 131.58 75.8319 133.066C75.6173 134.535 75.0643 135.79 74.1727 136.83C73.2812 137.87 71.8779 138.415 69.9628 138.464C68.477 138.382 67.3791 137.729 66.6692 136.508C65.9758 135.286 65.4888 133.924 65.2081 132.422C64.944 130.919 64.7129 129.722 64.5147 128.831C64.5643 129.821 64.5395 130.87 64.4404 131.976C64.3579 133.082 64.1185 134.13 63.7223 135.121C63.3426 136.095 62.7317 136.896 61.8897 137.523C61.0478 138.15 59.9004 138.464 58.4475 138.464H57.3331V131.753H59.0666C59.7435 131.753 60.3296 131.662 60.8249 131.481C61.3202 131.299 61.7412 131.051 62.0879 130.738C62.4346 130.424 62.7152 130.077 62.9298 129.698C63.161 129.301 63.3426 128.905 63.4746 128.509C63.6232 128.096 63.7305 127.7 63.7966 127.32C63.8626 126.941 63.9121 126.602 63.9452 126.305C63.9782 126.008 64.0112 125.777 64.0442 125.612C64.0772 125.43 64.1185 125.356 64.168 125.389C64.2176 125.405 64.2919 125.537 64.3909 125.785C64.523 126.115 64.7129 126.602 64.9605 127.246C65.2081 127.873 65.5218 128.534 65.9015 129.227C66.2978 129.921 66.7683 130.515 67.3131 131.01C67.8744 131.505 68.5183 131.753 69.2447 131.753H70.5819C71.2588 131.753 71.8449 131.662 72.3402 131.481C72.8355 131.299 73.2565 131.051 73.6032 130.738C73.9499 130.424 74.2388 130.077 74.4699 129.698C74.701 129.301 74.8826 128.905 75.0147 128.509C75.1468 128.096 75.2459 127.7 75.3119 127.32C75.3779 126.941 75.4275 126.602 75.4605 126.305C75.51 126.008 75.543 125.777 75.5595 125.612C75.5926 125.43 75.6338 125.356 75.6834 125.389C75.7329 125.405 75.8154 125.537 75.931 125.785C76.0466 126.115 76.2282 126.602 76.4758 127.246C76.7234 127.873 77.0371 128.534 77.4168 129.227C77.8131 129.921 78.2836 130.515 78.8284 131.01C79.3897 131.505 80.0418 131.753 80.7848 131.753C81.0819 131.753 83.8968 131.753 89.2293 131.753C87.6939 130.647 86.2329 129.516 84.8461 128.36C83.4758 127.205 82.7907 126.627 82.7907 126.627L85.2671 116.251C85.3826 117.406 85.9522 118.62 86.9758 119.891C88.0159 121.146 89.1798 122.409 90.4675 123.68ZM112.656 131.753V138.464H110.749C110.485 140.247 110.015 142.014 109.338 143.764C108.677 145.514 107.736 146.983 106.515 148.172C105.871 148.865 104.558 149.633 102.577 150.475C100.613 151.317 97.5996 152.01 93.5383 152.555C89.477 153.116 83.9793 153.306 77.0454 153.124C79.4558 153.174 81.9734 152.869 84.5984 152.208C89.089 151.102 93.4475 149.27 97.6739 146.711C101.917 144.152 105.004 141.494 106.936 138.737C106.985 138.654 107.043 138.563 107.109 138.464H104.88C103.989 138.464 103.048 138.398 102.057 138.266C101.067 138.134 100.134 137.878 99.2588 137.498C98.4003 137.119 97.6987 136.574 97.1538 135.864C96.609 135.137 96.3366 134.188 96.3366 133.016C96.3366 131.596 96.543 130.234 96.9557 128.93C97.385 127.626 97.905 126.437 98.5159 125.364C99.1267 124.274 99.7376 123.325 100.348 122.516C100.959 121.707 101.471 121.08 101.884 120.634C102.313 120.188 102.528 119.965 102.528 119.965C102.528 119.965 102.8 120.064 103.345 120.263C103.906 120.461 104.591 120.807 105.4 121.303C106.226 121.781 107.059 122.467 107.901 123.358C108.76 124.25 109.495 125.38 110.105 126.751C110.716 128.121 111.088 129.788 111.22 131.753H112.656ZM101.71 131.753H107.877C106.804 130.647 105.524 129.739 104.038 129.029C102.569 128.319 101.248 127.799 100.076 127.469C98.9203 127.122 98.3425 126.949 98.3425 126.949C98.3425 126.949 98.2435 127.114 98.0453 127.444C97.8472 127.758 97.6821 128.154 97.5501 128.633C97.418 129.112 97.418 129.59 97.5501 130.069C97.6987 130.531 98.0866 130.928 98.714 131.258C99.3413 131.588 100.34 131.753 101.71 131.753ZM125.335 138.464H112.359V131.753H125.335V138.464ZM137.965 138.464H124.989V131.753H137.965V138.464ZM150.595 138.464H137.618V131.753H150.595V138.464ZM160.129 143.268L164.388 140.421L168.227 146.116L162.531 149.955L160.599 147.082L156.34 149.955L152.526 144.259L158.222 140.421L160.129 143.268ZM168.871 131.753H169.737V138.464C168.648 138.464 167.74 138.217 167.013 137.721C166.303 137.209 165.726 136.566 165.28 135.79C164.834 134.997 164.479 134.163 164.215 133.288C163.967 132.397 163.761 131.555 163.596 130.763C163.447 129.97 163.291 129.326 163.125 128.831C163.191 129.821 163.167 130.87 163.051 131.976C162.952 133.082 162.663 134.13 162.184 135.121C161.706 136.095 160.954 136.896 159.931 137.523C158.924 138.15 157.537 138.464 155.77 138.464H150.322V131.753H156.513C157.438 131.753 158.222 131.638 158.866 131.406C159.51 131.175 160.046 130.87 160.476 130.49C160.905 130.11 161.243 129.698 161.491 129.252C161.755 128.806 161.953 128.36 162.085 127.915C162.217 127.452 162.316 127.031 162.383 126.652C162.449 126.272 162.498 125.967 162.531 125.735C162.564 125.504 162.614 125.389 162.68 125.389C162.746 125.372 162.845 125.504 162.977 125.785C163.125 126.115 163.348 126.602 163.645 127.246C163.959 127.873 164.347 128.534 164.809 129.227C165.288 129.921 165.858 130.515 166.518 131.01C167.195 131.505 167.979 131.753 168.871 131.753ZM184.943 105.875L179.247 109.713L175.408 104.017L181.129 100.179L184.943 105.875ZM181.377 110.976C181.377 110.976 181.632 111.083 182.144 111.298C182.673 111.496 183.316 111.859 184.076 112.388C184.835 112.899 185.595 113.634 186.354 114.592C187.114 115.533 187.749 116.738 188.261 118.207C188.789 119.676 189.053 121.468 189.053 123.581C189.053 124.77 188.897 126.041 188.583 127.395C188.269 128.748 187.766 130.077 187.072 131.382C186.379 132.686 185.463 133.875 184.324 134.948C183.201 136.004 181.822 136.863 180.188 137.523C178.57 138.167 176.663 138.489 174.467 138.489H169.614V131.778H175.161C177.324 131.778 179.131 131.563 180.584 131.134C182.053 130.688 183.226 130.119 184.101 129.425C184.992 128.732 185.653 127.997 186.082 127.221C186.528 126.429 186.792 125.669 186.874 124.943C186.957 124.217 186.932 123.606 186.8 123.11C186.8 123.952 186.511 124.852 185.933 125.81C185.372 126.767 184.588 127.601 183.581 128.311C182.574 129.021 181.434 129.425 180.163 129.524C178.331 129.623 176.919 129.12 175.928 128.014C174.954 126.908 174.707 125.207 175.186 122.912C175.664 121.195 176.391 119.429 177.365 117.613C178.339 115.797 179.247 114.237 180.089 112.932C180.947 111.628 181.377 110.976 181.377 110.976ZM179.098 122.689C180.667 122.921 181.979 122.995 183.036 122.912C184.092 122.83 184.885 122.706 185.413 122.541C185.958 122.376 186.23 122.293 186.23 122.293C186.23 122.293 185.793 121.963 184.918 121.303C184.043 120.642 182.92 119.982 181.55 119.321C180.493 118.876 179.569 118.579 178.776 118.43C177.984 118.265 177.588 118.182 177.588 118.182C177.588 118.182 177.456 118.38 177.191 118.777C176.944 119.173 176.762 119.643 176.647 120.188C176.531 120.733 176.63 121.245 176.944 121.724C177.274 122.186 177.992 122.508 179.098 122.689ZM194.204 131.629C194.204 131.629 196.326 131.671 200.569 131.753V138.464C198.835 138.464 197.49 138.076 196.532 137.3C195.575 136.508 194.865 135.476 194.403 134.205C193.94 132.917 193.618 131.514 193.437 129.995C193.255 128.476 193.09 126.965 192.941 125.463C192.71 123.3 192.463 120.733 192.199 117.761C191.753 113.882 191.373 110.836 191.059 108.623L198.687 100.278C199 103.91 198.959 107.559 198.563 111.224C198.183 114.889 197.647 118.257 196.953 121.327C196.276 124.398 195.649 126.883 195.071 128.781C194.493 130.68 194.204 131.629 194.204 131.629ZM218.201 128.063C218.333 128.905 218.217 130.143 217.854 131.778C217.507 133.396 217.111 134.915 216.665 136.334C216.236 137.754 216.022 138.464 216.022 138.464H200.371V131.753H204.68C206.677 126.701 208.287 122.656 209.509 119.619C209.509 119.619 209.888 119.792 210.648 120.139C211.407 120.469 212.299 120.989 213.322 121.699C214.362 122.392 215.336 123.267 216.244 124.324C217.152 125.38 217.805 126.627 218.201 128.063ZM205.125 131.753H214.833C214.189 131.093 213.24 130.35 211.985 129.524C210.73 128.699 209.088 127.807 207.057 126.85C206.562 128.022 205.918 129.656 205.125 131.753Z" fill="#822222"/>
<mask id="path-21-inside-1_6_513" fill="white">
<path d="M58.4454 98.5773H19.3209C12.9186 98.5773 7.72847 103.767 7.72847 110.17V149.294H58.4454V98.5773Z"/>
</mask>
<path d="M58.4454 97.1282H19.3209C12.1183 97.1282 6.27942 102.967 6.27942 110.17H9.17753C9.17753 104.568 13.7189 100.026 19.3209 100.026H58.4454V97.1282ZM7.72847 149.294H58.4454H7.72847ZM58.4454 149.294V98.5773V149.294ZM19.3209 97.1282C12.1183 97.1282 6.27942 102.967 6.27942 110.17V149.294H9.17753V110.17C9.17753 104.568 13.7189 100.026 19.3209 100.026V97.1282Z" fill="#AD917B" mask="url(#path-21-inside-1_6_513)"/>
<path d="M28.4284 104.189C28.4284 104.189 29.7984 110.662 34.7855 108.402C39.7727 106.142 37.9289 101.808 36.2644 99.1959C34.6 96.5841 32.4616 96.1101 29.1967 98.1909C25.9318 100.272 25.4579 102.41 24.9842 104.548C24.5105 106.686 23.563 110.963 26.1173 112.09C28.6717 113.216 28.9662 109.356 27.0648 107.813C25.1635 106.27 21.9561 105.559 21.9561 105.559C21.9561 105.559 25.2786 100.688 22.4874 100.63C19.6962 100.572 21.4823 107.698 21.4823 107.698C21.4823 107.698 18.3965 111.5 14.0625 113.344C9.72837 115.188 5.16126 116.262 4.14776 114.153C3.13427 112.044 8.12154 109.785 12.8717 108.594C17.6219 107.403 26.2325 106.507 21.8409 111.142C17.4493 115.777 17.9165 103.543 17.9165 103.543" stroke="#AD917B" stroke-width="1.44905"/>
<mask id="path-24-inside-2_6_513" fill="white">
<path d="M197.555 156.539H236.679C243.081 156.539 248.271 151.349 248.271 144.947V105.823H197.555V156.539Z"/>
</mask>
<path d="M197.555 157.989H236.679C243.882 157.989 249.721 152.15 249.721 144.947H246.822C246.822 150.549 242.281 155.09 236.679 155.09H197.555V157.989ZM248.271 105.823H197.555H248.271ZM197.555 105.823V156.539V105.823ZM236.679 157.989C243.882 157.989 249.721 152.15 249.721 144.947V105.823H246.822V144.947C246.822 150.549 242.281 155.09 236.679 155.09V157.989Z" fill="#AD917B" mask="url(#path-24-inside-2_6_513)"/>
<path d="M227.572 150.927C227.572 150.927 226.202 144.455 221.214 146.715C216.227 148.975 218.071 153.309 219.735 155.921C221.4 158.533 223.538 159.007 226.803 156.926C230.068 154.845 230.542 152.707 231.016 150.569C231.489 148.43 232.437 144.154 229.883 143.027C227.328 141.901 227.034 145.761 228.935 147.304C230.836 148.847 234.044 149.557 234.044 149.557C234.044 149.557 230.721 154.429 233.513 154.487C236.304 154.545 234.518 147.419 234.518 147.419C234.518 147.419 237.603 143.616 241.937 141.773C246.272 139.929 250.839 138.855 251.852 140.963C252.866 143.072 247.878 145.332 243.128 146.523C238.378 147.714 229.767 148.61 234.159 143.975C238.551 139.34 238.083 151.574 238.083 151.574" stroke="#AD917B" stroke-width="1.44905"/>
</g>
<rect x="0.845479" y="91.6943" width="254.309" height="71.7282" rx="14.1283" stroke="#822222" stroke-width="0.724527"/>
<defs>
<filter id="filter0_d_6_513" x="78.0076" y="0.0416286" width="99.2602" height="128.483" filterUnits="userSpaceOnUse" color-interpolation-filters="sRGB">
<feFlood flood-opacity="0" result="BackgroundImageFix"/>
<feColorMatrix in="SourceAlpha" type="matrix" values="0 0 0 0 0 0 0 0 0 0 0 0 0 0 0 0 0 0 127 0" result="hardAlpha"/>
<feMorphology radius="3.62264" operator="dilate" in="SourceAlpha" result="effect1_dropShadow_6_513"/>
<feOffset dy="3.62264"/>
<feGaussianBlur stdDeviation="1.08679"/>
<feComposite in2="hardAlpha" operator="out"/>
<feColorMatrix type="matrix" values="0 0 0 0 0 0 0 0 0 0 0 0 0 0 0 0 0 0 0.15 0"/>
<feBlend mode="normal" in2="BackgroundImageFix" result="effect1_dropShadow_6_513"/>
<feBlend mode="normal" in="SourceGraphic" in2="effect1_dropShadow_6_513" result="shape"/>
</filter>
<clipPath id="clip0_6_513">
<rect x="168.574" y="11.6341" width="87.6678" height="116.89" rx="5.84452" transform="rotate(10 168.574 11.6341)" fill="white"/>
</clipPath>
<clipPath id="clip1_6_513">
<rect width="70.2791" height="70.2791" fill="white" transform="translate(175.878 20.279) rotate(10)"/>
</clipPath>
<clipPath id="clip2_6_513">
<rect x="0.483215" y="91.332" width="255.034" height="72.4527" rx="14.4905" fill="white"/>
</clipPath>
</defs>
</svg>
